<svg xmlns="http://www.w3.org/2000/svg" width="142" height="33"><path d="M1 1c2.544 4.793 6.82 7.941 11.666 7.941 4.85 0 9.124-3.148 11.667-7.941 2.544 4.793 6.819 7.941 11.668 7.941 4.847 0 9.122-3.148 11.666-7.941 2.543 4.793 6.818 7.941 11.667 7.941S68.458 5.793 71 1c2.544 4.793 6.82 7.941 11.666 7.941 4.85 0 9.124-3.148 11.667-7.941 2.544 4.793 6.819 7.941 11.668 7.941 4.847 0 9.122-3.148 11.666-7.941 2.543 4.793 6.818 7.941 11.667 7.941S138.458 5.793 141 1M24.333 23.828h0c2.544 4.793 6.819 7.941 11.668 7.941 4.847 0 9.122-3.148 11.666-7.94 2.543 4.792 6.818 7.94 11.667 7.94s9.124-3.148 11.666-7.94c2.544 4.792 6.82 7.94 11.666 7.94 4.85 0 9.124-3.148 11.667-7.94 2.544 4.792 6.819 7.94 11.668 7.94 4.847 0 9.122-3.148 11.666-7.94" stroke="#FFF" stroke-width="2" fill="none" stroke-linecap="round" stroke-linejoin="round"/></svg>